<?xml version="1.0" encoding="UTF-8"?>
<svg xmlns="http://www.w3.org/2000/svg" xmlns:xlink="http://www.w3.org/1999/xlink" width="57pt" height="57pt" viewBox="0 0 57 57" version="1.1">
<g id="surface1">
<path style="fill:none;stroke-width:0.3985;stroke-linecap:butt;stroke-linejoin:miter;stroke:rgb(0%,0%,0%);stroke-opacity:1;stroke-miterlimit:10;" d="M 20.045531 20.045656 L -20.044313 20.045656 L -20.044313 -20.044187 L 20.045531 -20.044187 L 20.045531 20.045656 L -20.044313 -20.044187 " transform="matrix(1,0,0,-1,22.724,34.073)"/>
<path style=" stroke:none;fill-rule:nonzero;fill:rgb(0%,0%,0%);fill-opacity:1;" d="M 44.761719 14.027344 C 44.761719 12.929688 43.867188 12.035156 42.769531 12.035156 C 41.667969 12.035156 40.777344 12.929688 40.777344 14.027344 C 40.777344 15.128906 41.667969 16.019531 42.769531 16.019531 C 43.867188 16.019531 44.761719 15.128906 44.761719 14.027344 Z M 44.761719 14.027344 "/>
<path style=" stroke:none;fill-rule:nonzero;fill:rgb(0%,0%,0%);fill-opacity:1;" d="M 4.671875 14.027344 C 4.671875 12.929688 3.78125 12.035156 2.679688 12.035156 C 1.578125 12.035156 0.6875 12.929688 0.6875 14.027344 C 0.6875 15.128906 1.578125 16.019531 2.679688 16.019531 C 3.78125 16.019531 4.671875 15.128906 4.671875 14.027344 Z M 4.671875 14.027344 "/>
<path style=" stroke:none;fill-rule:nonzero;fill:rgb(0%,0%,0%);fill-opacity:1;" d="M 4.671875 54.117188 C 4.671875 53.015625 3.78125 52.125 2.679688 52.125 C 1.578125 52.125 0.6875 53.015625 0.6875 54.117188 C 0.6875 55.21875 1.578125 56.109375 2.679688 56.109375 C 3.78125 56.109375 4.671875 55.21875 4.671875 54.117188 Z M 4.671875 54.117188 "/>
<path style=" stroke:none;fill-rule:nonzero;fill:rgb(0%,0%,0%);fill-opacity:1;" d="M 44.761719 54.117188 C 44.761719 53.015625 43.867188 52.125 42.769531 52.125 C 41.667969 52.125 40.777344 53.015625 40.777344 54.117188 C 40.777344 55.21875 41.667969 56.109375 42.769531 56.109375 C 43.867188 56.109375 44.761719 55.21875 44.761719 54.117188 Z M 44.761719 54.117188 "/>
<path style="fill:none;stroke-width:0.3985;stroke-linecap:butt;stroke-linejoin:miter;stroke:rgb(0%,0%,0%);stroke-opacity:1;stroke-miterlimit:10;" d="M -20.044313 20.045656 C 19.389281 53.276125 53.276 19.389406 20.045531 -20.044187 " transform="matrix(1,0,0,-1,22.724,34.073)"/>
</g>
</svg>
