<?xml version="1.0" encoding="UTF-8"?>
<svg xmlns="http://www.w3.org/2000/svg" xmlns:xlink="http://www.w3.org/1999/xlink" width="65pt" height="45pt" viewBox="0 0 65 45" version="1.1">
<g id="surface1">
<path style="fill:none;stroke-width:0.3985;stroke-linecap:butt;stroke-linejoin:miter;stroke:rgb(0%,0%,0%);stroke-opacity:1;stroke-miterlimit:10;" d="M -29.763406 0.00146875 L -14.880594 39.685063 L -0.0016875 0.00146875 L 14.881125 39.685063 L 29.763937 0.00146875 L -14.880594 39.685063 M 14.881125 39.685063 L -29.763406 0.00146875 " transform="matrix(1,0,0,-1,32.447,42.646)"/>
<path style=" stroke:none;fill-rule:nonzero;fill:rgb(0%,0%,0%);fill-opacity:1;" d="M 4.675781 42.644531 C 4.675781 41.546875 3.785156 40.652344 2.683594 40.652344 C 1.582031 40.652344 0.691406 41.546875 0.691406 42.644531 C 0.691406 43.746094 1.582031 44.636719 2.683594 44.636719 C 3.785156 44.636719 4.675781 43.746094 4.675781 42.644531 Z M 4.675781 42.644531 "/>
<path style=" stroke:none;fill-rule:nonzero;fill:rgb(0%,0%,0%);fill-opacity:1;" d="M 19.558594 2.960938 C 19.558594 1.859375 18.664062 0.96875 17.566406 0.96875 C 16.464844 0.96875 15.574219 1.859375 15.574219 2.960938 C 15.574219 4.0625 16.464844 4.953125 17.566406 4.953125 C 18.664062 4.953125 19.558594 4.0625 19.558594 2.960938 Z M 19.558594 2.960938 "/>
<path style=" stroke:none;fill-rule:nonzero;fill:rgb(0%,0%,0%);fill-opacity:1;" d="M 34.441406 42.644531 C 34.441406 41.546875 33.546875 40.652344 32.445312 40.652344 C 31.347656 40.652344 30.453125 41.546875 30.453125 42.644531 C 30.453125 43.746094 31.347656 44.636719 32.445312 44.636719 C 33.546875 44.636719 34.441406 43.746094 34.441406 42.644531 Z M 34.441406 42.644531 "/>
<path style=" stroke:none;fill-rule:nonzero;fill:rgb(0%,0%,0%);fill-opacity:1;" d="M 49.320312 2.960938 C 49.320312 1.859375 48.429688 0.96875 47.328125 0.96875 C 46.226562 0.96875 45.335938 1.859375 45.335938 2.960938 C 45.335938 4.0625 46.226562 4.953125 47.328125 4.953125 C 48.429688 4.953125 49.320312 4.0625 49.320312 2.960938 Z M 49.320312 2.960938 "/>
<path style=" stroke:none;fill-rule:nonzero;fill:rgb(0%,0%,0%);fill-opacity:1;" d="M 64.203125 42.644531 C 64.203125 41.546875 63.3125 40.652344 62.210938 40.652344 C 61.109375 40.652344 60.21875 41.546875 60.21875 42.644531 C 60.21875 43.746094 61.109375 44.636719 62.210938 44.636719 C 63.3125 44.636719 64.203125 43.746094 64.203125 42.644531 Z M 64.203125 42.644531 "/>
</g>
</svg>
