<?xml version="1.0" encoding="UTF-8"?>
<svg xmlns="http://www.w3.org/2000/svg" xmlns:xlink="http://www.w3.org/1999/xlink" width="45pt" height="46pt" viewBox="0 0 45 46" version="1.1">
<g id="surface1">
<path style="fill:none;stroke-width:0.3985;stroke-linecap:butt;stroke-linejoin:miter;stroke:rgb(0%,0%,0%);stroke-opacity:1;stroke-miterlimit:10;" d="M 8.018187 8.015719 L 20.045531 20.043063 L -20.044313 20.043063 M 8.018187 8.015719 L -8.016969 8.015719 " transform="matrix(1,0,0,-1,22.724,23.004)"/>
<path style=" stroke:none;fill-rule:nonzero;fill:rgb(0%,0%,0%);fill-opacity:1;" d="M 32.734375 14.988281 C 32.734375 13.886719 31.84375 12.992188 30.742188 12.992188 C 29.640625 12.992188 28.75 13.886719 28.75 14.988281 C 28.75 16.085938 29.640625 16.980469 30.742188 16.980469 C 31.84375 16.980469 32.734375 16.085938 32.734375 14.988281 Z M 32.734375 14.988281 "/>
<path style=" stroke:none;fill-rule:nonzero;fill:rgb(0%,0%,0%);fill-opacity:1;" d="M 44.761719 2.960938 C 44.761719 1.859375 43.867188 0.96875 42.769531 0.96875 C 41.667969 0.96875 40.777344 1.859375 40.777344 2.960938 C 40.777344 4.058594 41.667969 4.953125 42.769531 4.953125 C 43.867188 4.953125 44.761719 4.058594 44.761719 2.960938 Z M 44.761719 2.960938 "/>
<path style="fill:none;stroke-width:0.3985;stroke-linecap:butt;stroke-linejoin:miter;stroke:rgb(0%,0%,0%);stroke-opacity:1;stroke-miterlimit:10;" d="M -8.016969 8.015719 L -20.044313 20.043063 L -20.044313 -20.042875 M -8.016969 8.015719 L -8.016969 -8.019437 " transform="matrix(1,0,0,-1,22.724,23.004)"/>
<path style=" stroke:none;fill-rule:nonzero;fill:rgb(0%,0%,0%);fill-opacity:1;" d="M 16.699219 14.988281 C 16.699219 13.886719 15.808594 12.992188 14.707031 12.992188 C 13.605469 12.992188 12.714844 13.886719 12.714844 14.988281 C 12.714844 16.085938 13.605469 16.980469 14.707031 16.980469 C 15.808594 16.980469 16.699219 16.085938 16.699219 14.988281 Z M 16.699219 14.988281 "/>
<path style=" stroke:none;fill-rule:nonzero;fill:rgb(0%,0%,0%);fill-opacity:1;" d="M 4.671875 2.960938 C 4.671875 1.859375 3.78125 0.96875 2.679688 0.96875 C 1.578125 0.96875 0.6875 1.859375 0.6875 2.960938 C 0.6875 4.058594 1.578125 4.953125 2.679688 4.953125 C 3.78125 4.953125 4.671875 4.058594 4.671875 2.960938 Z M 4.671875 2.960938 "/>
<path style="fill:none;stroke-width:0.3985;stroke-linecap:butt;stroke-linejoin:miter;stroke:rgb(0%,0%,0%);stroke-opacity:1;stroke-miterlimit:10;" d="M -8.016969 -8.019437 L -20.044313 -20.042875 L 20.045531 -20.042875 M -8.016969 -8.019437 L 8.018187 -8.019437 " transform="matrix(1,0,0,-1,22.724,23.004)"/>
<path style=" stroke:none;fill-rule:nonzero;fill:rgb(0%,0%,0%);fill-opacity:1;" d="M 16.699219 31.023438 C 16.699219 29.921875 15.808594 29.027344 14.707031 29.027344 C 13.605469 29.027344 12.714844 29.921875 12.714844 31.023438 C 12.714844 32.121094 13.605469 33.015625 14.707031 33.015625 C 15.808594 33.015625 16.699219 32.121094 16.699219 31.023438 Z M 16.699219 31.023438 "/>
<path style=" stroke:none;fill-rule:nonzero;fill:rgb(0%,0%,0%);fill-opacity:1;" d="M 4.671875 43.046875 C 4.671875 41.949219 3.78125 41.054688 2.679688 41.054688 C 1.578125 41.054688 0.6875 41.949219 0.6875 43.046875 C 0.6875 44.148438 1.578125 45.039062 2.679688 45.039062 C 3.78125 45.039062 4.671875 44.148438 4.671875 43.046875 Z M 4.671875 43.046875 "/>
<path style="fill:none;stroke-width:0.3985;stroke-linecap:butt;stroke-linejoin:miter;stroke:rgb(0%,0%,0%);stroke-opacity:1;stroke-miterlimit:10;" d="M 8.018187 -8.019437 L 20.045531 -20.042875 L 20.045531 20.043063 M 8.018187 -8.019437 L 8.018187 8.015719 " transform="matrix(1,0,0,-1,22.724,23.004)"/>
<path style=" stroke:none;fill-rule:nonzero;fill:rgb(0%,0%,0%);fill-opacity:1;" d="M 32.734375 31.023438 C 32.734375 29.921875 31.84375 29.027344 30.742188 29.027344 C 29.640625 29.027344 28.75 29.921875 28.75 31.023438 C 28.75 32.121094 29.640625 33.015625 30.742188 33.015625 C 31.84375 33.015625 32.734375 32.121094 32.734375 31.023438 Z M 32.734375 31.023438 "/>
<path style=" stroke:none;fill-rule:nonzero;fill:rgb(0%,0%,0%);fill-opacity:1;" d="M 44.761719 43.046875 C 44.761719 41.949219 43.867188 41.054688 42.769531 41.054688 C 41.667969 41.054688 40.777344 41.949219 40.777344 43.046875 C 40.777344 44.148438 41.667969 45.039062 42.769531 45.039062 C 43.867188 45.039062 44.761719 44.148438 44.761719 43.046875 Z M 44.761719 43.046875 "/>
</g>
</svg>
