<?xml version="1.0" encoding="UTF-8"?>
<svg xmlns="http://www.w3.org/2000/svg" xmlns:xlink="http://www.w3.org/1999/xlink" width="59pt" height="57pt" viewBox="0 0 59 57" version="1.1">
<g id="surface1">
<path style="fill:none;stroke-width:0.3985;stroke-linecap:butt;stroke-linejoin:miter;stroke:rgb(0%,0%,0%);stroke-opacity:1;stroke-miterlimit:10;" d="M 26.958656 8.760125 L 0.001625 28.346063 L 16.661781 -22.931281 " transform="matrix(1,0,0,-1,29.639,31.307)"/>
<path style=" stroke:none;fill-rule:nonzero;fill:rgb(0%,0%,0%);fill-opacity:1;" d="M 58.589844 22.546875 C 58.589844 21.445312 57.699219 20.554688 56.597656 20.554688 C 55.5 20.554688 54.605469 21.445312 54.605469 22.546875 C 54.605469 23.648438 55.5 24.539062 56.597656 24.539062 C 57.699219 24.539062 58.589844 23.648438 58.589844 22.546875 Z M 58.589844 22.546875 "/>
<path style="fill:none;stroke-width:0.3985;stroke-linecap:butt;stroke-linejoin:miter;stroke:rgb(0%,0%,0%);stroke-opacity:1;stroke-miterlimit:10;" d="M 0.001625 28.346063 L -26.959312 8.760125 L 26.958656 8.760125 " transform="matrix(1,0,0,-1,29.639,31.307)"/>
<path style=" stroke:none;fill-rule:nonzero;fill:rgb(0%,0%,0%);fill-opacity:1;" d="M 31.632812 2.960938 C 31.632812 1.859375 30.738281 0.96875 29.640625 0.96875 C 28.539062 0.96875 27.644531 1.859375 27.644531 2.960938 C 27.644531 4.0625 28.539062 4.953125 29.640625 4.953125 C 30.738281 4.953125 31.632812 4.0625 31.632812 2.960938 Z M 31.632812 2.960938 "/>
<path style="fill:none;stroke-width:0.3985;stroke-linecap:butt;stroke-linejoin:miter;stroke:rgb(0%,0%,0%);stroke-opacity:1;stroke-miterlimit:10;" d="M -26.959312 8.760125 L -16.662437 -22.931281 L 0.001625 28.346063 " transform="matrix(1,0,0,-1,29.639,31.307)"/>
<path style=" stroke:none;fill-rule:nonzero;fill:rgb(0%,0%,0%);fill-opacity:1;" d="M 4.671875 22.546875 C 4.671875 21.445312 3.78125 20.554688 2.679688 20.554688 C 1.578125 20.554688 0.6875 21.445312 0.6875 22.546875 C 0.6875 23.648438 1.578125 24.539062 2.679688 24.539062 C 3.78125 24.539062 4.671875 23.648438 4.671875 22.546875 Z M 4.671875 22.546875 "/>
<path style="fill:none;stroke-width:0.3985;stroke-linecap:butt;stroke-linejoin:miter;stroke:rgb(0%,0%,0%);stroke-opacity:1;stroke-miterlimit:10;" d="M -16.662437 -22.931281 L 16.661781 -22.931281 L -26.959312 8.760125 " transform="matrix(1,0,0,-1,29.639,31.307)"/>
<path style=" stroke:none;fill-rule:nonzero;fill:rgb(0%,0%,0%);fill-opacity:1;" d="M 14.96875 54.238281 C 14.96875 53.140625 14.078125 52.246094 12.976562 52.246094 C 11.875 52.246094 10.984375 53.140625 10.984375 54.238281 C 10.984375 55.339844 11.875 56.234375 12.976562 56.234375 C 14.078125 56.234375 14.96875 55.339844 14.96875 54.238281 Z M 14.96875 54.238281 "/>
<path style="fill:none;stroke-width:0.3985;stroke-linecap:butt;stroke-linejoin:miter;stroke:rgb(0%,0%,0%);stroke-opacity:1;stroke-miterlimit:10;" d="M 16.661781 -22.931281 L 26.958656 8.760125 L -16.662437 -22.931281 " transform="matrix(1,0,0,-1,29.639,31.307)"/>
<path style=" stroke:none;fill-rule:nonzero;fill:rgb(0%,0%,0%);fill-opacity:1;" d="M 48.292969 54.238281 C 48.292969 53.140625 47.402344 52.246094 46.300781 52.246094 C 45.199219 52.246094 44.308594 53.140625 44.308594 54.238281 C 44.308594 55.339844 45.199219 56.234375 46.300781 56.234375 C 47.402344 56.234375 48.292969 55.339844 48.292969 54.238281 Z M 48.292969 54.238281 "/>
</g>
</svg>
