<?xml version="1.0" encoding="UTF-8" standalone="no"?>
<svg
   xmlns:dc="http://purl.org/dc/elements/1.1/"
   xmlns:cc="http://creativecommons.org/ns#"
   xmlns:rdf="http://www.w3.org/1999/02/22-rdf-syntax-ns#"
   xmlns:svg="http://www.w3.org/2000/svg"
   xmlns="http://www.w3.org/2000/svg"
   xmlns:sodipodi="http://sodipodi.sourceforge.net/DTD/sodipodi-0.dtd"
   xmlns:inkscape="http://www.inkscape.org/namespaces/inkscape"
   inkscape:version="1.0 (4035a4fb49, 2020-05-01)"
   sodipodi:docname="image-122-red.svg"
   id="svg23"
   version="1.1"
   viewBox="0 0 59 57"
   height="57pt"
   width="59pt">
  <metadata
     id="metadata29">
    <rdf:RDF>
      <cc:Work
         rdf:about="">
        <dc:format>image/svg+xml</dc:format>
        <dc:type
           rdf:resource="http://purl.org/dc/dcmitype/StillImage" />
        <dc:title></dc:title>
      </cc:Work>
    </rdf:RDF>
  </metadata>
  <defs
     id="defs27" />
  <sodipodi:namedview
     inkscape:current-layer="svg23"
     inkscape:window-maximized="1"
     inkscape:window-y="0"
     inkscape:window-x="0"
     inkscape:cy="38.300669"
     inkscape:cx="37.623906"
     inkscape:zoom="9.0154549"
     showgrid="false"
     id="namedview25"
     inkscape:window-height="1016"
     inkscape:window-width="1920"
     inkscape:pageshadow="2"
     inkscape:pageopacity="0"
     guidetolerance="10"
     gridtolerance="10"
     objecttolerance="10"
     borderopacity="1"
     bordercolor="#666666"
     pagecolor="#ffffff" />
  <path
     style="fill:none;fill-opacity:1;stroke:#ff0000;stroke-width:0.3985;stroke-linecap:butt;stroke-linejoin:miter;stroke-miterlimit:10;stroke-opacity:1"
     d="M 56.597656,22.546875 29.640625,2.960937 46.300781,54.238281"
     id="path2" />
  <path
     style="fill:#ff0000;fill-opacity:1;fill-rule:nonzero;stroke:none;stroke-opacity:1"
     d="m 58.589844,22.546875 c 0,-1.101563 -0.890625,-1.992187 -1.992188,-1.992187 -1.097656,0 -1.992187,0.890624 -1.992187,1.992187 0,1.101563 0.894531,1.992187 1.992187,1.992187 1.101563,0 1.992188,-0.890624 1.992188,-1.992187 z m 0,0"
     id="path4" />
  <path
     style="fill:none;fill-opacity:1;stroke:#ff0000;stroke-width:0.3985;stroke-linecap:butt;stroke-linejoin:miter;stroke-miterlimit:10;stroke-opacity:1"
     d="M 29.640625,2.960937 2.679688,22.546875 h 53.917968"
     id="path6" />
  <path
     style="fill:#ff0000;fill-opacity:1;fill-rule:nonzero;stroke:none;stroke-opacity:1"
     d="m 31.632812,2.960938 c 0,-1.101563 -0.894531,-1.992188 -1.992187,-1.992188 -1.101563,0 -1.996094,0.890625 -1.996094,1.992188 0,1.101562 0.894531,1.992187 1.996094,1.992187 1.097656,0 1.992187,-0.890625 1.992187,-1.992187 z m 0,0"
     id="path8" />
  <path
     style="fill:none;fill-opacity:1;stroke:#ff0000;stroke-width:0.3985;stroke-linecap:butt;stroke-linejoin:miter;stroke-miterlimit:10;stroke-opacity:1"
     d="M 2.679688,22.546875 12.976563,54.238281 29.640625,2.960937"
     id="path10" />
  <path
     style="fill:#ff0000;fill-opacity:1;fill-rule:nonzero;stroke:none;stroke-opacity:1"
     d="m 4.671875,22.546875 c 0,-1.101563 -0.890625,-1.992187 -1.992187,-1.992187 -1.101563,0 -1.992188,0.890624 -1.992188,1.992187 0,1.101563 0.890625,1.992187 1.992188,1.992187 1.101562,0 1.992187,-0.890624 1.992187,-1.992187 z m 0,0"
     id="path12" />
  <path
     style="fill:none;fill-opacity:1;stroke:#ff0000;stroke-width:0.3985;stroke-linecap:butt;stroke-linejoin:miter;stroke-miterlimit:10;stroke-opacity:1"
     d="M 12.976563,54.238281 H 46.300781 L 2.679688,22.546875"
     id="path14" />
  <path
     style="fill:#ff0000;fill-opacity:1;fill-rule:nonzero;stroke:none;stroke-opacity:1"
     d="m 14.96875,54.238281 c 0,-1.097656 -0.890625,-1.992187 -1.992188,-1.992187 -1.101562,0 -1.992187,0.894531 -1.992187,1.992187 0,1.101563 0.890625,1.996094 1.992187,1.996094 1.101563,0 1.992188,-0.894531 1.992188,-1.996094 z m 0,0"
     id="path16" />
  <path
     style="fill:none;fill-opacity:1;stroke:#ff0000;stroke-width:0.3985;stroke-linecap:butt;stroke-linejoin:miter;stroke-miterlimit:10;stroke-opacity:1"
     d="M 46.300781,54.238281 56.597656,22.546875 12.976563,54.238281"
     id="path18" />
  <path
     style="fill:#ff0000;fill-opacity:1;fill-rule:nonzero;stroke:none;stroke-opacity:1"
     d="m 48.292969,54.238281 c 0,-1.097656 -0.890625,-1.992187 -1.992188,-1.992187 -1.101562,0 -1.992187,0.894531 -1.992187,1.992187 0,1.101563 0.890625,1.996094 1.992187,1.996094 1.101563,0 1.992188,-0.894531 1.992188,-1.996094 z m 0,0"
     id="path20" />
</svg>
