<?xml version="1.0" encoding="UTF-8" standalone="no"?>
<svg
   xmlns:dc="http://purl.org/dc/elements/1.1/"
   xmlns:cc="http://creativecommons.org/ns#"
   xmlns:rdf="http://www.w3.org/1999/02/22-rdf-syntax-ns#"
   xmlns:svg="http://www.w3.org/2000/svg"
   xmlns="http://www.w3.org/2000/svg"
   xmlns:sodipodi="http://sodipodi.sourceforge.net/DTD/sodipodi-0.dtd"
   xmlns:inkscape="http://www.inkscape.org/namespaces/inkscape"
   inkscape:version="1.0 (4035a4fb49, 2020-05-01)"
   sodipodi:docname="image-118-tetra2.svg"
   id="svg15"
   version="1.1"
   viewBox="0 0 56.905895 56.781666"
   height="56.781666pt"
   width="56.905895pt">
  <metadata
     id="metadata21">
    <rdf:RDF>
      <cc:Work
         rdf:about="">
        <dc:format>image/svg+xml</dc:format>
        <dc:type
           rdf:resource="http://purl.org/dc/dcmitype/StillImage" />
        <dc:title></dc:title>
      </cc:Work>
    </rdf:RDF>
  </metadata>
  <defs
     id="defs19" />
  <sodipodi:namedview
     fit-margin-bottom="0"
     fit-margin-right="0"
     fit-margin-left="0"
     fit-margin-top="0"
     inkscape:current-layer="svg15"
     inkscape:window-maximized="1"
     inkscape:window-y="0"
     inkscape:window-x="0"
     inkscape:cy="31.756367"
     inkscape:cx="32.714884"
     inkscape:zoom="5.9924534"
     showgrid="false"
     id="namedview17"
     inkscape:window-height="1016"
     inkscape:window-width="1920"
     inkscape:pageshadow="2"
     inkscape:pageopacity="0"
     guidetolerance="10"
     gridtolerance="10"
     objecttolerance="10"
     borderopacity="1"
     bordercolor="#666666"
     pagecolor="#ffffff" />
  <path
     style="fill:#000000;fill-opacity:1;fill-rule:nonzero;stroke:none"
     d="m 56.905895,54.772225 c 0,-1.097656 -0.894531,-1.992188 -1.992188,-1.992188 -1.101562,0 -1.992187,0.894532 -1.992187,1.992188 0,1.101562 0.890625,1.992187 1.992187,1.992187 1.097657,0 1.992188,-0.890625 1.992188,-1.992187 z m 0,0"
     id="path4" />
  <path
     style="fill:#000000;fill-opacity:1;fill-rule:nonzero;stroke:none"
     d="M 30.488235,1.9921876 C 30.488235,0.894532 29.59761,0 28.496048,0 27.394485,0 26.50386,0.894532 26.50386,1.9921876 c 0,1.101562 0.890625,1.992187 1.992188,1.992187 1.101562,0 1.992187,-0.890625 1.992187,-1.992187 z m 0,0"
     id="path6" />
  <path
     style="fill:#000000;fill-opacity:1;fill-rule:nonzero;stroke:none"
     d="m 3.9843747,54.78948 c 0,-1.101563 -0.8906247,-1.992188 -1.9921867,-1.992188 C 0.890625,52.797292 0,53.687917 0,54.78948 c 0,1.101562 0.890625,1.992187 1.992188,1.992187 1.101562,0 1.9921867,-0.890625 1.9921867,-1.992187 z m 0,0"
     id="path8" />
  <path
     style="fill:#000000;fill-opacity:1;fill-rule:nonzero;stroke:none"
     d="m 30.422332,34.819088 c 0,-1.101563 -0.894531,-1.992188 -1.992188,-1.992188 -1.101562,0 -1.992187,0.890625 -1.992187,1.992188 0,1.101562 0.890625,1.992187 1.992187,1.992187 1.097657,0 1.992188,-0.890625 1.992188,-1.992187 z m 0,0"
     id="path10" />
  <path
     sodipodi:nodetypes="cc"
     style="fill:none;stroke:#000000;stroke-width:0.3985;stroke-linecap:butt;stroke-linejoin:miter;stroke-miterlimit:10;stroke-opacity:1"
     d="M 28.410852,1.6680666 55.034655,54.747654"
     id="path12" />
  <path
     id="path12-3"
     d="M 28.410852,1.6680666 1.9216719,54.825154"
     style="fill:none;stroke:#000000;stroke-width:0.3985;stroke-linecap:butt;stroke-linejoin:miter;stroke-miterlimit:10;stroke-opacity:1"
     sodipodi:nodetypes="cc" />
  <path
     sodipodi:nodetypes="cc"
     style="fill:none;stroke:#000000;stroke-width:0.3985;stroke-linecap:butt;stroke-linejoin:miter;stroke-miterlimit:10;stroke-opacity:1"
     d="m 55.034655,54.747654 -53.1129831,0.0775"
     id="path12-3-6" />
  <path
     id="path12-3-6-7"
     d="M 1.9216719,54.825154 28.330964,34.90901"
     style="fill:none;stroke:#000000;stroke-width:0.3985;stroke-linecap:butt;stroke-linejoin:miter;stroke-miterlimit:10;stroke-opacity:1"
     sodipodi:nodetypes="cc" />
  <path
     sodipodi:nodetypes="cc"
     style="fill:none;stroke:#000000;stroke-width:0.3985;stroke-linecap:butt;stroke-linejoin:miter;stroke-miterlimit:10;stroke-opacity:1"
     d="M 28.330964,34.90901 55.034655,54.747654"
     id="path12-3-6-7-5" />
  <path
     sodipodi:nodetypes="cc"
     style="fill:none;stroke:#000000;stroke-width:0.3985;stroke-linecap:butt;stroke-linejoin:miter;stroke-miterlimit:10;stroke-opacity:1"
     d="M 28.410852,1.6680666 28.330964,34.90901"
     id="path12-3-6-7-3" />
</svg>
